<?xml version="1.0" encoding="iso-8859-1"?>
<!-- Generator: Adobe Illustrator 18.1.1, SVG Export Plug-In . SVG Version: 6.00 Build 0)  -->
<svg version="1.1" id="Capa_1" xmlns="http://www.w3.org/2000/svg" xmlns:xlink="http://www.w3.org/1999/xlink" x="0px" y="0px"
	 viewBox="0 0 19.328 19.328" style="enable-background:new 0 0 19.328 19.328;" xml:space="preserve">
<g>
	<path style="fill:#030104;" d="M19.328,3.097l-0.303-0.464L18.35,3.045l-0.712-0.897l-0.083,1.415l-2.367,1.448
		c-0.37-0.415-0.633-0.527-0.633-0.527l-4.212,2.595l-0.304-0.12L9.871,6.7l3.201-1.781C12.811,4.496,12.29,3.65,12.29,3.65
		L9.295,5.893L9.173,5.968L9.028,5.732L8.342,6.155l0.146,0.238l-0.212,0.13L7.838,5.811L7.152,6.234L7.59,6.946L7.293,7.129
		L7.146,6.891L6.46,7.314l0.146,0.237L6.584,7.566L3.881,8.993l0.675,1.096l2.583-1.75C7.26,8.536,7.353,8.687,7.353,8.687
		L5.605,9.761l0.293,0.456l-0.373,1.185l-1.518,1.412c0,0-2.772,1.469-4.007,2.152c0.308,0.691,0.964,1.57,1.443,2.214
		c0,0,4.855-4.879,6.706-4.765l1.837-1.136c0,0-0.752-0.704-0.5-0.864c1.583,1.752,3.062,1.704,3.062,1.704
		c0.442-0.568,0.528-1.221,0.78-1.834c-1.195-0.286-1.226-0.103-2.25-1.111l4.673-2.88c0.07-0.246-0.271-0.827-0.271-0.827
		L19.328,3.097z M9.498,11.262l-1.203,0.742c0,0-0.281-0.437-0.435-0.688l0.265-0.16c0.168,0.165,0.502,0.417,0.834,0.213
		l-0.124-0.2c-0.173,0.106-0.374-0.023-0.502-0.139l0.743-0.453L9.498,11.262z"/>
</g>
<g>
</g>
<g>
</g>
<g>
</g>
<g>
</g>
<g>
</g>
<g>
</g>
<g>
</g>
<g>
</g>
<g>
</g>
<g>
</g>
<g>
</g>
<g>
</g>
<g>
</g>
<g>
</g>
<g>
</g>
</svg>
