<svg height="512pt" viewBox="-36 0 512 512.001" width="512pt" xmlns="http://www.w3.org/2000/svg"><path d="m424.160156 16.160156c-10.417968-10.421875-24.269531-16.160156-39.007812-16.160156-14.734375 0-28.589844 5.738281-39.007813 16.160156-17.832031 17.832032-20.867187 44.929688-9.132812 65.929688l-25.707031 25.710937-12.113282-12.117187c-5.859375-5.855469-15.355468-5.855469-21.214844 0-5.855468 5.855468-5.859374 15.355468 0 21.210937l12.117188 12.121094-24.230469 24.230469-12.117187-12.117188c-5.859375-5.859375-15.355469-5.859375-21.214844 0-5.855469 5.855469-5.859375 15.351563 0 21.210938l12.117188 12.121094-24.230469 24.230468-29.152344-29.152344c-10.390625-10.394531-24.246094-16.113281-39.015625-16.113281-14.765625 0-28.621094 5.722657-39.007812 16.113281l-80.664063 80.660157c-43.4375 43.429687-43.4375 114.105469-.003906 157.550781 21.042969 21.039062 49.019531 32.625 78.777343 32.625 24.695313 0 48.160157-7.984375 67.457032-22.726562l78.199218 78.199218c10.417969 10.417969 24.273438 16.152344 39.007813 16.152344s28.589844-5.734375 39.011719-16.152344c21.507812-21.507812 21.507812-56.511718 0-78.023437l-62.488282-62.484375h68.308594c8.285156 0 15-6.71875 15-15 0-8.285156-6.714844-15-15-15h-68.394531c19.824219-21.621094 19.277344-55.335938-1.664063-76.273438l-29.15625-29.160156 24.230469-24.230469 12.113281 12.117188c2.929688 2.929687 6.769532 4.394531 10.609376 4.394531 3.835937 0 7.675781-1.460938 10.605468-4.390625 5.855469-5.859375 5.855469-15.355469 0-21.214844l-12.117187-12.117187 24.230469-24.234375 12.117187 12.117187c2.929687 2.929688 6.769531 4.394532 10.609375 4.394532 3.835938 0 7.675781-1.464844 10.605469-4.394532 5.855469-5.855468 5.855469-15.351562 0-21.210937l-12.117188-12.121094 25.695313-25.695313c8.140625 4.570313 17.347656 7.015626 26.9375 7.015626 14.734375 0 28.589844-5.738282 39.007812-16.152344 10.421875-10.421875 16.160156-24.277344 16.160156-39.011719 0-14.738281-5.738281-28.59375-16.160156-39.011719zm0 0"/></svg>