<?xml version="1.0" encoding="iso-8859-1"?>
<!-- Generator: Adobe Illustrator 19.0.0, SVG Export Plug-In . SVG Version: 6.00 Build 0)  -->
<svg version="1.1" id="Layer_1" xmlns="http://www.w3.org/2000/svg" xmlns:xlink="http://www.w3.org/1999/xlink" x="0px" y="0px"
	 viewBox="0 0 512 512" style="enable-background:new 0 0 512 512;" xml:space="preserve">
<g>
	<g>
		<path d="M366.442,121.568L295.63,192.38l-9.267-9.267L417.21,52.265L364.943,0l-18.477,18.477L333.77,5.78l-21.527,21.527
			l12.697,12.697l-90.844,90.844l-17.527-17.527l-87.498,87.498l-10.764,10.764l-21.16,21.16l21.527,21.527l18.297-18.297
			c2.801,10.299,0.174,21.78-7.899,29.852c-45.709,45.709-45.709,120.081,0,165.79L209.455,512l93.659-93.659l-33.94-33.94
			l22.015-22.015c26.355-26.355,29.588-67.205,9.709-97.124l33.807-33.807l-17.548-17.548l70.812-70.812L366.442,121.568z
			 M160.897,229.783l62.895-62.895l21.527,21.527l-62.895,62.895L160.897,229.783z M196.716,265.601l62.895-62.895l21.527,21.527
			l-62.895,62.895L196.716,265.601z M269.662,340.859l-22.015,22.015l-22.18-22.18l12.39-12.39l12.676,12.676l21.527-21.527
			l-12.676-12.676l19.251-19.251C287.052,304.9,284.063,326.458,269.662,340.859z"/>
	</g>
</g>
<g>
</g>
<g>
</g>
<g>
</g>
<g>
</g>
<g>
</g>
<g>
</g>
<g>
</g>
<g>
</g>
<g>
</g>
<g>
</g>
<g>
</g>
<g>
</g>
<g>
</g>
<g>
</g>
<g>
</g>
</svg>
