<?xml version="1.0" encoding="iso-8859-1"?>
<!-- Generator: Adobe Illustrator 18.1.1, SVG Export Plug-In . SVG Version: 6.00 Build 0)  -->
<svg version="1.1" id="Capa_1" xmlns="http://www.w3.org/2000/svg" xmlns:xlink="http://www.w3.org/1999/xlink" x="0px" y="0px"
	 viewBox="0 0 16.223 16.223" style="enable-background:new 0 0 16.223 16.223;" xml:space="preserve">
<g>
	<g>
		<path style="fill:#030104;" d="M9.327,5.259L8.028,6.558L6.931,5.461L6.601,5.79l0.768,0.768L6.437,7.49l0.329,0.329L5.687,8.898
			L5.249,9.337l-1.438,1.438l-0.277-0.277l-1.03,1.029l0.278,0.278l-0.837,0.837c-0.103,0.102-0.343,0.671-1.303,1.632
			c-0.086,0.086-0.159,0.159-0.22,0.219c-0.008,0.009-0.014,0.018-0.021,0.026C0.3,14.494,0.189,14.521,0.11,14.6l-0.019,0.019
			c-0.121,0.121-0.122,0.317,0,0.438l1.056,1.057c0.122,0.121,0.318,0.121,0.439,0l0.019-0.019c0.062-0.063,0.092-0.145,0.09-0.227
			c0.02-0.014,0.04-0.028,0.058-0.046c0.084-0.084,0.184-0.183,0.301-0.301c1.399-1.398,1.422-1.176,1.508-1.262l0.892-0.893
			l1.363,1.363c0.121,0.121,0.317,0.121,0.438,0l0.622-0.622c0.122-0.121,0.122-0.317,0-0.439l-1.362-1.361l1.352-1.353l0.128-0.129
			l1.947,1.947c0.121,0.121,0.317,0.122,0.438,0l0.621-0.621c0.122-0.121,0.121-0.318,0.001-0.439l-1.056-1.056
			c0.157-0.071,0.375-0.19,0.551-0.366c0.162-0.163,0.286-0.372,0.286-0.634c0-0.434-0.368-0.749-0.681-0.939l1.842-1.841
			L9.327,5.259z M9.475,9.657c0,0.435-0.576,0.69-0.765,0.764l-0.375-0.375c0.321,0.01,0.623-0.017,0.749-0.129
			C9.086,9.915,9.089,9.912,9.091,9.91c0.057-0.057,0.06-0.146,0.007-0.207c-0.055-0.065-0.153-0.072-0.219-0.02
			C8.811,9.739,8.495,9.748,8.102,9.719l0.777-0.776C9.156,9.103,9.475,9.358,9.475,9.657z"/>
		<path style="fill:#030104;" d="M16.151,0.089c-0.096-0.095-0.251-0.095-0.348,0l-1.745,1.746
			c-0.526-0.216-1.445,0.147-2.213,0.916c-0.503,0.502-0.831,1.07-0.938,1.549l-0.794,0.795l1.032,1.033l0.795-0.795
			c0.479-0.105,1.047-0.435,1.551-0.937c0.767-0.769,1.13-1.687,0.914-2.213l1.745-1.746C16.247,0.342,16.247,0.186,16.151,0.089z"
			/>
	</g>
</g>
<g>
</g>
<g>
</g>
<g>
</g>
<g>
</g>
<g>
</g>
<g>
</g>
<g>
</g>
<g>
</g>
<g>
</g>
<g>
</g>
<g>
</g>
<g>
</g>
<g>
</g>
<g>
</g>
<g>
</g>
</svg>
