<?xml version="1.0" encoding="iso-8859-1"?>
<!-- Generator: Adobe Illustrator 19.0.0, SVG Export Plug-In . SVG Version: 6.00 Build 0)  -->
<svg version="1.1" id="Capa_1" xmlns="http://www.w3.org/2000/svg" xmlns:xlink="http://www.w3.org/1999/xlink" x="0px" y="0px"
	 viewBox="0 0 509.441 509.441" style="enable-background:new 0 0 509.441 509.441;" xml:space="preserve">
<g>
	<g>
		<path d="M454.504,17.152L442.387,4.95C439.166,1.755,434.806-0.026,430.27,0c-4.549-0.004-8.911,1.809-12.117,5.035L213.352,211.2
			c-2.112,2.158-3.614,4.837-4.352,7.765c-2.913,0.712-5.572,2.219-7.68,4.352L145,279.04c-2.112,2.158-3.614,4.837-4.352,7.765
			c-2.928,0.738-5.607,2.24-7.765,4.352L65.896,358.4c-20.147,18.682-21.336,50.159-2.654,70.306
			c0.851,0.918,1.736,1.803,2.654,2.654l73.045,73.045c3.207,3.226,7.569,5.038,12.117,5.035c4.578,0.026,8.975-1.788,12.203-5.035
			l36.523-36.523c6.692-6.638,6.737-17.443,0.099-24.136c-0.033-0.033-0.066-0.066-0.099-0.099l-18.261-18.261
			c-3.393-2.774-3.895-7.774-1.121-11.167c0.335-0.41,0.711-0.786,1.121-1.121l36.523-36.608l6.144,6.144
			c10.097,10.561,23.964,16.697,38.571,17.067c10.932,0.201,21.484-4.013,29.269-11.691l17.067-17.067
			c17.067-17.067,15.104-47.787-5.035-68.267l-5.803-6.571l6.229-6.229c3.309-3.328,3.309-8.704,0-12.032l-6.144-6.144
			l-24.405-24.405c-3.309-3.328-3.309-8.704,0-12.032c3.328-3.309,8.704-3.309,12.032,0l24.491,24.491l6.144,6.144
			c3.328,3.309,8.704,3.309,12.032,0c3.309-3.328,3.309-8.704,0-12.032l-5.717-6.229l-24.405-24.405
			c-3.309-3.328-3.309-8.704,0-12.032c3.319-3.346,8.722-3.368,12.068-0.049c0.017,0.016,0.033,0.033,0.049,0.049l24.405,24.405
			l6.059,6.059c3.328,3.309,8.704,3.309,12.032,0c3.309-3.328,3.309-8.704,0-12.032l-6.059-6.059l-24.149-24.747
			c-3.309-3.328-3.309-8.704,0-12.032c3.328-3.309,8.704-3.309,12.032,0l24.576,24.491l5.973,6.059
			c3.319,3.346,8.722,3.368,12.068,0.049c0.017-0.016,0.033-0.033,0.049-0.049l5.888-6.571c3.226-3.207,5.038-7.569,5.035-12.117
			c0.004-4.549-1.809-8.911-5.035-12.117l-6.144-6.144l60.928-60.928c6.692-6.638,6.737-17.443,0.099-24.136
			c-0.033-0.033-0.066-0.066-0.099-0.099L426.088,83.03c-2.308-2.371-5.285-3.979-8.533-4.608l37.035-37.291
			C461.127,34.461,461.089,23.775,454.504,17.152z M286.056,308.48l6.144,6.144c13.397,13.483,15.701,33.109,5.035,43.776
			l-17.067,17.067c-5.369,5.073-12.723,7.483-20.053,6.571c-9.022-1.036-17.405-5.167-23.723-11.691l-6.144-5.973L286.056,308.48z"
			/>
	</g>
</g>
<g>
</g>
<g>
</g>
<g>
</g>
<g>
</g>
<g>
</g>
<g>
</g>
<g>
</g>
<g>
</g>
<g>
</g>
<g>
</g>
<g>
</g>
<g>
</g>
<g>
</g>
<g>
</g>
<g>
</g>
</svg>
