<?xml version="1.0" encoding="iso-8859-1"?>
<!-- Generator: Adobe Illustrator 19.0.0, SVG Export Plug-In . SVG Version: 6.00 Build 0)  -->
<svg version="1.1" id="Capa_1" xmlns="http://www.w3.org/2000/svg" xmlns:xlink="http://www.w3.org/1999/xlink" x="0px" y="0px"
	 viewBox="0 0 512 512" style="enable-background:new 0 0 512 512;" xml:space="preserve">
<g>
	<g>
		<g>
			<path d="M494.933,89.6h-17.067v-8.533C477.839,71.652,470.214,64.027,460.8,64h-17.067v-8.533
				c-0.038-6.06-3.286-11.646-8.533-14.677V19.968c-0.037-8.656-7.045-15.664-15.701-15.701h-13.824
				c-16.671,0.031-30.177,13.537-30.208,30.208V38.4H102.4V21.333c-0.028-9.414-7.652-17.039-17.067-17.067h-25.6
				c-9.054-0.003-17.737,3.593-24.139,9.995S25.597,29.347,25.6,38.4h-8.533C7.652,38.428,0.028,46.052,0,55.467v76.8
				c0.025,1.023,0.227,2.033,0.597,2.987c0.09,0.308,0.234,0.597,0.427,0.853c0.319,0.62,0.721,1.195,1.195,1.707
				c0.171,0.256,0.427,0.512,0.597,0.768c0.593,0.447,1.221,0.847,1.877,1.195c0.256,0.171,0.427,0.256,0.683,0.427
				c0.065,0.009,0.125,0.039,0.171,0.085l129.195,47.616c15.282,5.642,24.46,21.283,21.931,37.376l-28.501,177.493
				c-0.736,4.919,0.707,9.915,3.952,13.684c3.245,3.769,7.971,5.939,12.944,5.943h8.533v68.267
				c0.028,9.414,7.652,17.039,17.067,17.067h68.267c9.414-0.028,17.039-7.653,17.067-17.067V422.4
				c9.414-0.028,17.039-7.653,17.067-17.067v-17.067h-34.133c-4.713,0-8.533-3.82-8.533-8.533s3.82-8.533,8.533-8.533h34.133
				v-17.067h-34.133c-4.713,0-8.533-3.821-8.533-8.533s3.82-8.533,8.533-8.533h34.133V320h-34.133c-4.713,0-8.533-3.82-8.533-8.533
				s3.82-8.533,8.533-8.533h34.133v-17.067h-34.133c-4.713,0-8.533-3.82-8.533-8.533s3.82-8.533,8.533-8.533h25.6h8.533h76.8
				c18.844-0.019,34.115-15.29,34.133-34.133V192h42.667c9.414-0.028,17.039-7.653,17.067-17.067V166.4H460.8
				c9.414-0.028,17.039-7.652,17.067-17.067V140.8h17.067c9.414-0.028,17.039-7.653,17.067-17.067v-17.067
				C511.973,97.252,504.348,89.628,494.933,89.6z M85.333,38.4H42.667c0.027-9.414,7.652-17.039,17.067-17.067h25.6V38.4z
				 M196.267,106.667c-4.707,0.014-8.519,3.826-8.533,8.533v17.067c0,4.713-3.82,8.533-8.533,8.533s-8.533-3.82-8.533-8.533V115.2
				c0.041-14.121,11.479-25.559,25.6-25.6h55.808c8.288-14.334,25.67-20.649,41.226-14.977s24.794,21.693,21.912,37.997
				c-2.883,16.304-17.055,28.186-33.612,28.18c-9.054,0.003-17.737-3.593-24.139-9.995c-6.402-6.402-9.997-15.085-9.995-24.139
				H196.267z M366.933,234.667c-0.012,9.421-7.646,17.054-17.067,17.067h-76.8v-51.2c-0.012-0.157,0.015-0.313,0.07-0.46
				l46.172,33.001c1.442,1.036,3.174,1.593,4.95,1.592c3.71,0.002,6.996-2.393,8.13-5.925c1.134-3.532-0.145-7.393-3.163-9.55
				L291.181,192h75.752V234.667z M418.133,38.4h-25.6v-3.925c0.003-7.256,5.885-13.138,13.141-13.141h12.459V38.4z"/>
			<path d="M281.6,123.733c9.426,0,17.067-7.641,17.067-17.067S291.026,89.6,281.6,89.6c-6.84,0.034-13.007,4.124-15.701,10.411
				c-0.25,0.52-0.45,1.063-0.597,1.621c-0.524,1.626-0.783,3.326-0.769,5.035C264.533,116.092,272.174,123.733,281.6,123.733z"/>
		</g>
	</g>
</g>
<g>
</g>
<g>
</g>
<g>
</g>
<g>
</g>
<g>
</g>
<g>
</g>
<g>
</g>
<g>
</g>
<g>
</g>
<g>
</g>
<g>
</g>
<g>
</g>
<g>
</g>
<g>
</g>
<g>
</g>
</svg>
