<svg height="511pt" viewBox="0 -4 511.9809 511" width="511pt" xmlns="http://www.w3.org/2000/svg"><path d="m26.363281 289.140625c1.015625 3.773437 4.425781 6.398437 8.328125 6.421875.464844.015625.929688-.015625 1.390625-.085938l104.136719-17.355468c2.539062-.417969 4.765625-1.945313 6.074219-4.167969l2.6875-4.425781 20.828125-34.710938h81.832031c12.398437.023438 23.859375-6.601562 30.027344-17.355468h-56.058594c-4.792969 0-8.679687-3.886719-8.679687-8.679688 0-4.789062 3.886718-8.675781 8.679687-8.675781h216.949219c9.570312-.027344 17.324218-7.78125 17.355468-17.355469v-17.355469c-.03125-9.574219-7.785156-17.328125-17.355468-17.355469h-8.679688v-8.679687c0-4.792969-3.886718-8.679687-8.675781-8.679687-4.792969 0-8.679687 3.886718-8.679687 8.679687v8.679687h-189.527344l-50.679688-16.921874c-.894531-.292969-1.832031-.4375-2.777344-.4375-2.363281.234374-4.707031-.605469-6.390624-2.285157-1.679688-1.679687-2.519532-4.027343-2.285157-6.390625 0-4.792968-3.886719-8.679687-8.679687-8.679687-4.792969 0-8.675782 3.886719-8.675782 8.679687.011719 8.597656 4.152344 16.671875 11.132813 21.695313l-32.570313 39.050781h-117.410156c-2.6875.003906-5.21875 1.253906-6.855468 3.382812-1.675782 2.136719-2.226563 4.941407-1.476563 7.550782zm0 0"/><path d="m169.203125 269.527344h13.015625c11.003906-.03125 20.800781-6.976563 24.472656-17.355469h-27.078125zm0 0"/><path d="m182.21875 469.121094v34.714844h52.066406c4.792969 0 8.679688-3.886719 8.679688-8.679688v-17.355469c0-4.792969-3.886719-8.679687-8.679688-8.679687zm0 0"/><path d="m164.863281 503.835938v-34.714844h-17.355469c-4.792968 0-8.679687 3.886718-8.679687 8.679687v17.355469c0 4.792969 3.886719 8.679688 8.679687 8.679688zm0 0"/><path d="m303.710938 495.15625c0 4.792969 3.882812 8.679688 8.675781 8.679688h17.355469c4.792968 0 8.679687-3.886719 8.679687-8.679688v-52.066406h-34.710937zm0 0"/><path d="m338.421875 408.375c0-4.792969-3.886719-8.675781-8.679687-8.675781h-17.355469c-4.792969 0-8.675781 3.882812-8.675781 8.675781v17.355469h34.710937zm0 0"/><path d="m202.089844 86.25c3.410156 3.382812 8.914062 3.382812 12.324218 0l31.152344-31.152344h-.085937l-25.945313-25.949218-31.15625 31.066406c-3.363281 3.386718-3.363281 8.851562 0 12.238281zm0 0"/><path d="m271.515625 29.0625c3.363281-3.382812 3.363281-8.851562 0-12.234375l-13.710937-13.800781c-3.410157-3.382813-8.914063-3.382813-12.324219 0l-13.710938 13.800781 26.035157 26.03125zm0 0"/><path d="m193.414062 310.402344-13.710937 13.710937c-3.386719 3.410157-3.386719 8.914063 0 12.324219l31.066406 31.066406 26.03125-26.035156-31.066406-31.066406c-3.410156-3.382813-8.910156-3.382813-12.320313 0zm0 0"/><path d="m249.125 393.535156 13.710938-13.710937c3.386718-3.410157 3.386718-8.910157 0-12.320313l-13.710938-13.710937-26.035156 26.03125 13.710937 13.710937c3.414063 3.386719 8.914063 3.386719 12.324219 0zm0 0"/><path d="m477.269531 182.75c0 5.992188-1.554687 11.882812-4.511719 17.09375 1.496094.175781 3.003907.265625 4.511719.261719 17.355469 0 34.710938-26.035157 34.710938-26.035157s-17.355469-26.03125-34.710938-26.03125c-1.507812-.003906-3.015625.082032-4.511719.257813 2.957032 5.214844 4.511719 11.105469 4.511719 17.097656zm0 0"/><path d="m286.355469 330.273438v-34.710938c0-4.792969-3.886719-8.675781-8.679688-8.675781s-8.679687 3.882812-8.679687 8.675781v34.710938c0 4.792968 3.886718 8.679687 8.679687 8.679687s8.679688-3.886719 8.679688-8.679687zm0 0"/><path d="m242.964844 278.207031c-4.792969 0-8.679688 3.886719-8.679688 8.679688v17.355469c0 4.792968 3.886719 8.675781 8.679688 8.675781 4.792968 0 8.675781-3.882813 8.675781-8.675781v-17.355469c0-4.792969-3.882813-8.679688-8.675781-8.679688zm0 0"/><path d="m265.058594 79.480469c-4.269532 2.175781-5.96875 7.402343-3.792969 11.671875 5.027344 9.511718 7.679687 20.09375 7.730469 30.851562 0 4.792969 3.886718 8.675782 8.679687 8.675782s8.679688-3.882813 8.679688-8.675782c-.039063-13.488281-3.339844-26.769531-9.625-38.703125-1.039063-2.054687-2.855469-3.613281-5.046875-4.328125-2.1875-.71875-4.570313-.535156-6.625.507813zm0 0"/><path d="m303.710938 122.003906c0 4.792969 3.882812 8.675782 8.675781 8.675782s8.679687-3.882813 8.679687-8.675782c.03125-23.1875-6.597656-45.894531-19.09375-65.421875-2.582031-4.039062-7.949218-5.21875-11.988281-2.636719-4.035156 2.585938-5.214844 7.953126-2.632813 11.988282 10.710938 16.738281 16.386719 36.199218 16.359376 56.070312zm0 0"/></svg>